# xmcd CD database file
#
# Track frame offsets:
#	150
#	13067
#	28880
#	39457
#	66687
#	79927
#	91940
#	103955
#	124022
#	140695
#	155920
#	177465
#
# Disc length: 2549 seconds
#
# Revision: 2
# Processed by: cddbd v1.4b42PL1 Copyright (c) Steve Scherf et al.
# Submitted via: CDex 1.40Beta8
#
DISCID=b209f30c
DTITLE=Mathilde Santing - Breast And Brow
DYEAR=1989
DGENRE=Vocal
TTITLE0=Close Watch
TTITLE1=It Wouldn't Have Made Any Difference
TTITLE2=Think About Your Troubles
TTITLE3=We Could Send Letters
TTITLE4=Is It For Now Or For Always
TTITLE5=It Can Only Mean I Love You
TTITLE6=Stone Is Not Stone
TTITLE7=That's All
TTITLE8=Spring Is Here
TTITLE9=I'm Gonna Laugh You Right Out Of My Life
TTITLE10=Sweet Nothings
TTITLE11=Torch Song
EXTD=YEAR: 1989 ID3G: 28
EXTT0=
EXTT1=
EXTT2=
EXTT3=
EXTT4=
EXTT5=
EXTT6=
EXTT7=
EXTT8=
EXTT9=
EXTT10=
EXTT11=
PLAYORDER=
